<?xml version="1.0" encoding="UTF-8" standalone="no"?>
<!-- Generator: Adobe Illustrator 16.0.0, SVG Export Plug-In . SVG Version: 6.00 Build 0)  -->

<svg
   version="1.1"
   x="0px"
   y="0px"
   width="1024"
   height="1024"
   viewBox="0 0 1024 1024"
   enable-background="new 0 0 942.329 841.851"
   xml:space="preserve"
   id="svg40"
   sodipodi:docname="app_logo.svg"
   inkscape:version="1.3.2 (091e20e, 2023-11-25, custom)"
   xmlns:inkscape="http://www.inkscape.org/namespaces/inkscape"
   xmlns:sodipodi="http://sodipodi.sourceforge.net/DTD/sodipodi-0.dtd"
   xmlns:xlink="http://www.w3.org/1999/xlink"
   xmlns="http://www.w3.org/2000/svg"
   xmlns:svg="http://www.w3.org/2000/svg"
   xmlns:rdf="http://www.w3.org/1999/02/22-rdf-syntax-ns#"
   xmlns:cc="http://creativecommons.org/ns#"
   xmlns:dc="http://purl.org/dc/elements/1.1/"><title
   id="title51">E.D.N.A. Logo</title><defs
   id="defs40"><color-profile
     name="sRGB-IEC61966-2.1"
     xlink:href="../../../Windows/system32/spool/drivers/color/sRGB%20Color%20Space%20Profile.icm"
     id="color-profile1" /></defs><sodipodi:namedview
   id="namedview40"
   pagecolor="#ffffff"
   bordercolor="#000000"
   borderopacity="0.25"
   inkscape:showpageshadow="2"
   inkscape:pageopacity="0.0"
   inkscape:pagecheckerboard="true"
   inkscape:deskcolor="#d1d1d1"
   inkscape:zoom="0.25"
   inkscape:cx="1532"
   inkscape:cy="-538"
   inkscape:window-width="2163"
   inkscape:window-height="1237"
   inkscape:window-x="816"
   inkscape:window-y="77"
   inkscape:window-maximized="0"
   inkscape:current-layer="svg40" />
<g
   id="Layer_11"
   transform="matrix(1.0823143,0,0,1.0823143,1.4020202,55.816234)"
   style="fill:#ff6600;fill-opacity:1">
	<path
   fill="#2c2c2c"
   d="m 864.154,422.925 c 0,-216.671 -176.327,-392.011 -392.999,-392.011 -216.672,0 -392.999,175.339 -392.999,392.011 0,216.672 176.327,393.984 392.999,393.984 216.672,0 392.999,-177.312 392.999,-393.984 z"
   id="path1"
   style="fill:#ff6600;fill-opacity:1" />
</g><g
   id="Layer_11-5"
   transform="matrix(1.0823143,0,0,1.0823143,637.41064,-286.45867)">
	<path
   fill="#2c2c2c"
   d="m 332.34502,735.72996 c 0,-247.28793 -201.24306,-447.40453 -448.53213,-447.40453 -247.28907,0 -448.53214,200.11546 -448.53214,447.40453 0,247.28906 201.24307,449.65624 448.53214,449.65624 247.28907,0 448.53213,-202.36718 448.53213,-449.65624 z"
   id="path1-1"
   style="fill:#d45500;fill-opacity:1;stroke:#000000;stroke-width:1.14107;stroke-dasharray:none;stroke-opacity:1"
   inkscape:label="Outline" />
</g>
<g
   id="Layer_8"
   transform="matrix(1.0823143,0,0,1.0823143,1.4020202,55.816234)">
	<path
   fill="#ffffff"
   d="m 856.238,261.227 c -0.455,-1.076 -0.938,-2.137 -1.402,-3.208 -0.221,0.227 -0.433,0.453 -0.659,0.68 l -0.042,0.042 -0.043,0.041 -18.702,17.278 c 18.546,45.641 28.766,95.554 28.766,147.854 0,212.83 -169.182,386.139 -380.396,392.794 -2.875,3.131 -6.401,6.413 -10.733,9.867 l -1.87,1.491 -1.87,-1.491 c -4.332,-3.454 -7.859,-6.736 -10.733,-9.867 C 247.338,810.053 78.155,636.744 78.155,423.914 c 0,-52.301 10.22,-102.213 28.766,-147.854 l -18.702,-17.28 -0.044,-0.041 -0.042,-0.042 c -0.227,-0.227 -0.438,-0.453 -0.659,-0.68 -0.464,1.071 -0.947,2.132 -1.402,3.208 -21.8,51.542 -32.854,106.277 -32.854,162.688 0,56.411 11.054,111.147 32.854,162.689 21.051,49.771 51.183,94.464 89.557,132.838 38.375,38.375 83.068,68.506 132.838,89.558 51.542,21.8 106.277,32.854 162.688,32.854 56.411,0 111.146,-11.054 162.688,-32.854 49.771,-21.052 94.464,-51.183 132.839,-89.558 38.374,-38.374 68.506,-83.067 89.557,-132.838 21.8,-51.542 32.854,-106.277 32.854,-162.688 0,-56.411 -11.055,-111.146 -32.855,-162.687 z"
   id="path2" />
</g>
<g
   id="Layer_3"
   transform="matrix(1.0823143,0,0,1.0823143,1.4020202,55.816234)">
</g>
<g
   id="Layer_7"
   transform="matrix(1.0823143,0,0,1.0823143,1.4020202,55.816234)">
	<path
   fill="#ffffff"
   d="M 180.226,159.696 C 252.118,80.583 355.836,30.914 471.155,30.914 c 115.319,0 219.038,49.669 290.93,128.782 5.506,-4.999 11.729,-10.647 18.467,-16.765 -4.496,-4.942 -9.119,-9.792 -13.87,-14.542 C 728.307,90.014 683.614,59.883 633.843,38.832 582.302,17.032 527.566,5.978 471.155,5.978 c -56.411,0 -111.146,11.053 -162.687,32.853 -49.771,21.051 -94.464,51.183 -132.838,89.557 -4.751,4.751 -9.374,9.6 -13.871,14.542 z"
   id="path3" />
</g>
<g
   id="Layer_2"
   transform="matrix(1.0823143,0,0,1.0823143,1.4020202,55.816234)">
</g>
<g
   id="Layer_4"
   style="display:none">
	<path
   fill="#ffffff"
   d="m 377.477,101.909 c 20.799,8.334 37.362,24.995 45.564,45.861 8.334,-20.799 24.994,-37.363 45.86,-45.564 -20.798,-8.334 -37.362,-24.995 -45.563,-45.861 -8.335,20.8 -24.994,37.363 -45.861,45.564 z"
   id="path4" />
	<path
   fill="#ffffff"
   d="m 513.676,241.88 c 10.19,4.083 18.306,12.246 22.324,22.47 4.084,-10.19 12.246,-18.306 22.47,-22.324 -10.189,-4.083 -18.306,-12.246 -22.324,-22.47 -4.083,10.191 -12.247,18.306 -22.47,22.324 z"
   id="path5" />
	<path
   fill="#ffffff"
   d="m 783.896,434.094 c 12.921,5.177 23.21,15.526 28.305,28.489 5.178,-12.92 15.526,-23.211 28.489,-28.305 -12.919,-5.178 -23.21,-15.527 -28.305,-28.489 -5.176,12.921 -15.526,23.21 -28.489,28.305 z"
   id="path6" />
	<path
   fill="#ffffff"
   d="m 490,165.177 c 17.016,6.817 30.566,20.447 37.275,37.519 6.818,-17.015 20.447,-30.567 37.519,-37.275 -17.014,-6.82 -30.566,-20.447 -37.275,-37.519 -6.818,17.015 -20.448,30.564 -37.519,37.275 z"
   id="path7" />
	<path
   fill="#ffffff"
   d="m 406.642,217.156 c 17.142,6.868 30.793,20.599 37.552,37.797 6.869,-17.141 20.599,-30.794 37.797,-37.552 -17.14,-6.871 -30.793,-20.599 -37.552,-37.797 -6.869,17.142 -20.6,30.792 -37.797,37.552 z"
   id="path8" />
	<path
   fill="#ffffff"
   d="m 95.155,406.719 c 9.862,3.951 17.715,11.851 21.604,21.745 3.952,-9.862 11.851,-17.716 21.745,-21.604 -9.86,-3.953 -17.715,-11.851 -21.604,-21.745 -3.951,9.862 -11.851,17.714 -21.745,21.604 z"
   id="path9" />
	<path
   fill="#ffffff"
   d="m 281.892,178.633 c 18.069,7.241 32.458,21.714 39.583,39.842 7.24,-18.069 21.713,-32.458 39.841,-39.583 -18.068,-7.241 -32.458,-21.714 -39.583,-39.841 -7.241,18.068 -21.714,32.457 -39.841,39.582 z"
   id="path10" />
</g>
<g
   id="Layer_9"
   transform="matrix(1.0823143,0,0,1.0823143,1.4020202,55.816234)">
</g>

<g
   id="Layer_10"
   transform="matrix(1.0823143,0,0,1.0823143,1.4020202,55.816234)">
	<g
   id="g25">
		<polygon
   fill="#ffffff"
   points="446.788,373.579 452.155,378.225 452.155,393.094 471.155,408.892 490.155,393.094 490.155,378.225 495.523,373.579 487.057,277.861 483.288,298.305 481.403,353.134 471.168,360.568 460.939,353.134 459.078,298.305 455.358,277.861 "
   id="polygon17" />
		<polygon
   fill="#ffffff"
   points="496.247,399.718 471.155,423.821 446.064,399.628 435.842,400.783 423.761,412.159 444.155,412.159 444.155,421.901 414.442,426.744 403.316,437.159 446.064,437.159 471.155,459.463 496.247,437.159 538.994,437.159 527.868,426.744 498.155,421.901 498.155,412.159 518.55,412.159 506.469,400.768 "
   id="polygon18" />
		<polygon
   fill="#ffffff"
   points="488.812,468.159 471.155,468.159 453.499,468.159 454.622,474.159 487.688,474.159 "
   id="polygon19" />
		<path
   fill="#ffffff"
   d="m 555.722,447.159 h -32.525 l -23.232,24.079 -0.601,2.921 h 116.623 c 22.7,-20.567 37.302,-33.774 41.831,-37.827 5.074,-4.54 7.213,-8.149 7.364,-11.439 0.131,-2.801 -1.116,-6.1 -4.114,-10.617 -1.42,-2.137 -3.204,-4.516 -5.66,-7.58 -0.988,-1.234 -2.043,-2.526 -3.553,-4.362 -0.417,-0.508 -1.922,-2.336 -1.921,-2.335 -0.791,-0.96 -1.401,-1.705 -2.006,-2.443 -18.871,-23.065 -20.009,-47.498 -1.487,-66.019 4.142,-4.141 7.655,-7.545 11.563,-11.222 2.324,-2.179 13.359,-12.402 17.779,-16.552 8.625,-8.102 18.405,-17.481 31.109,-29.89 12.314,-12.027 20.411,-30.586 24.784,-53.963 3.079,-16.462 3.931,-33.788 3.563,-50.351 l -177.083,164.99 v 30.667 c 37,32.061 27.127,51.195 27.127,51.195 z"
   id="path19" />
		<path
   fill="#ffffff"
   d="m 702.973,293.232 c -7.393,7.146 -13.734,13.189 -19.557,18.658 -4.455,4.185 -15.497,14.413 -16.919,15.746 -4.679,4.4 -8.111,7.726 -12.171,11.784 -13.557,13.558 -13.312,30.73 0.485,48.863 5.803,-5.468 14.77,-14.074 18.002,-17.492 9.489,-8.378 16.433,-14.883 20.445,-18.585 7.645,-7.04 10.239,-16.731 10.222,-29.738 0.018,-2.859 -0.116,-10.091 0,-20.445 -0.159,-0.41 -0.343,-4.34 -0.507,-8.791 z"
   id="path20" />
		<path
   fill="#ffffff"
   d="m 236.221,273.872 c 12.704,12.409 22.485,21.788 31.111,29.89 4.418,4.149 15.455,14.373 17.777,16.552 3.909,3.676 7.422,7.081 11.563,11.222 18.522,18.521 17.385,42.954 -1.485,66.019 -0.604,0.738 -1.215,1.483 -2.006,2.443 0.001,-10e-4 -1.504,1.827 -1.922,2.335 -1.508,1.836 -2.563,3.128 -3.552,4.362 -2.455,3.064 -4.239,5.443 -5.658,7.58 -2.999,4.517 -4.246,7.816 -4.115,10.617 0.151,3.291 2.29,6.899 7.364,11.439 4.529,4.053 19.132,17.26 41.832,37.827 h 115.82 l -0.601,-2.921 -23.232,-24.079 h -32.526 l -29.56,-30.75 c 0,0 -9.874,-19.134 27.126,-51.195 V 334.546 L 207.86,170.293 c -0.321,16.34 0.633,33.397 3.666,49.616 4.373,23.377 12.383,41.936 24.695,53.963 z"
   id="path21" />
		<path
   fill="#ffffff"
   d="m 475.802,687.683 -4.646,-6.506 -4.646,6.506 c 0,0 -14.002,86.424 -15.798,96.646 -1.934,10.223 -2.867,23.232 20.444,41.819 23.313,-18.587 22.38,-31.597 20.444,-41.819 -1.796,-10.223 -15.798,-96.646 -15.798,-96.646 z"
   id="path22" />
		<polygon
   fill="#ffffff"
   points="584.13,638.159 488.74,638.159 517.671,700.566 "
   id="polygon22" />
		<path
   fill="#ffffff"
   d="M 926.552,97.577 C 939.839,84.134 942.329,74.918 942.329,0 c 0,0 -162.246,147.285 -195.684,177.64 -0.084,14.689 -1.281,29.769 -4.003,44.318 -4.757,25.43 -13.735,46 -27.956,59.891 -0.303,0.295 -0.605,0.589 -0.903,0.881 0.162,5.88 0.538,18.329 0.85,19.292 -0.135,10.194 -0.001,17.462 -0.001,20.445 0,6.649 -0.525,12.17 -1.859,17.657 -2.296,8.063 -6.1,14.907 -12.08,20.445 -3.882,3.552 -19.938,18.645 -20.444,18.586 -3.2,3.378 -12.551,12.335 -18.368,17.816 0.847,1.034 1.551,1.903 2.231,2.752 2.645,3.301 4.61,5.92 6.245,8.383 4.188,6.31 6.225,11.699 5.966,17.302 -0.311,6.713 -3.961,12.876 -11.068,19.235 -3.875,3.466 -15.187,13.691 -32.658,29.516 h 65.355 c 17.581,-16.339 36.037,-33.481 54.503,-50.628 2.495,-2.317 4.927,-4.577 7.291,-6.769 16.006,-15.459 29.354,-28.371 29.23,-28.315 19.516,-21.374 17.563,-39.03 17.469,-75.273 0.094,0.204 -38.289,34.384 -38.289,34.384 v -13.01 l 85.684,-78.99 c 20.443,-20.445 15.917,-39.658 15.932,-91.071 -0.015,0.425 -42.615,39.96 -42.615,39.96 v -13.011 c -0.002,0 99.522,-93.91 99.395,-93.859 z"
   id="path23" />
		<path
   fill="#ffffff"
   d="m 236.972,322.467 c -0.019,13.006 2.577,22.698 10.223,29.738 4.012,3.703 10.954,10.207 20.444,18.585 3.534,3.737 13.925,13.677 19.537,18.935 14.9,-18.664 15.527,-36.389 1.611,-50.306 -4.059,-4.058 -7.492,-7.384 -12.171,-11.784 -1.421,-1.333 -12.464,-11.561 -16.919,-15.746 -6.487,-6.093 -13.618,-12.899 -22.131,-21.149 -0.182,5.376 -0.407,10.796 -0.595,11.282 0.117,10.354 -0.018,17.586 0.001,20.445 z"
   id="path24" />
		<polygon
   fill="#ffffff"
   points="476.448,638.159 466.665,638.159 427.783,722.031 449.781,742.511 460.004,679.318 471.155,662.591 482.308,679.318 492.529,742.511 515.088,721.509 "
   id="polygon24" />
		<polygon
   fill="#ffffff"
   points="454.373,638.159 358.205,638.159 425.207,701.075 "
   id="polygon25" />
		<path
   fill="#ffffff"
   d="m 174.155,347.558 c 0,0 -38.384,-34.181 -38.29,-34.384 -0.094,36.243 -1.953,53.899 17.563,75.273 -0.122,-0.055 12.853,12.542 28.597,27.748 2.554,2.371 5.167,4.818 7.878,7.336 18.465,17.146 36.898,34.289 54.48,50.628 h 66.135 c -17.471,-15.824 -28.783,-26.05 -32.658,-29.516 -7.108,-6.359 -10.758,-12.522 -11.068,-19.235 -0.26,-5.603 1.776,-10.992 5.965,-17.302 1.636,-2.463 3.602,-5.082 6.247,-8.383 0.347,-0.434 0.701,-0.873 1.077,-1.335 -5.555,-5.203 -16.382,-15.544 -19.876,-19.233 -0.507,0.059 -16.561,-15.034 -20.444,-18.586 -5.98,-5.538 -9.785,-12.381 -12.081,-20.445 -1.333,-5.487 -1.859,-11.008 -1.859,-17.657 0,-2.982 0.136,-10.25 0,-20.445 0.373,-1.155 0.84,-18.826 0.918,-21.88 -13.246,-13.845 -21.696,-33.776 -26.262,-58.183 -2.677,-14.308 -3.875,-29.127 -3.994,-43.584 C 164.95,149.747 0,0 0,0 c 0,74.918 2.471,84.134 15.759,97.577 -0.128,-0.05 99.396,93.859 99.396,93.859 v 13.011 c 0,0 -42.694,-39.535 -42.708,-39.96 0.015,51.413 -4.439,70.626 16.006,91.071 l 85.703,78.99 v 13.01 z"
   id="path25" />
	</g>
	<g
   id="g26">
	</g>
	<g
   id="g27">
	</g>
	<g
   id="g28">
	</g>
	<g
   id="g29">
	</g>
	<g
   id="g30">
	</g>
	<g
   id="g31">
	</g>
	<g
   id="g32">
	</g>
	<g
   id="g33">
	</g>
	<g
   id="g34">
	</g>
	<g
   id="g35">
	</g>
	<g
   id="g36">
	</g>
	<g
   id="g37">
	</g>
	<g
   id="g38">
	</g>
	<g
   id="g39">
	</g>
	<g
   id="g40">
	</g>
</g>
<text
   xml:space="preserve"
   style="font-style:normal;font-variant:normal;font-weight:bold;font-stretch:normal;font-size:144.308px;font-family:'JetBrains Mono';-inkscape-font-specification:'JetBrains Mono, Bold';font-variant-ligatures:normal;font-variant-caps:normal;font-variant-numeric:normal;font-variant-east-asian:normal;fill:#ffffff;fill-opacity:1;stroke-width:1.08231"
   x="185.08702"
   y="705.02765"
   id="text40"
   inkscape:label="E.D.N.A."><tspan
     id="tspan40"
     x="185.08702"
     y="705.02765"
     sodipodi:role="line"
     style="stroke-width:1.08231">E.D.N.A.</tspan></text><metadata
   id="metadata51"><rdf:RDF><cc:Work
       rdf:about=""><dc:title>E.D.N.A. Logo</dc:title></cc:Work></rdf:RDF></metadata></svg>
